<?xml version="1.0" encoding="UTF-8"?>
<svg width="100pt" height="100pt" version="1.1" viewBox="0 0 100 100" xmlns="http://www.w3.org/2000/svg">
 <g fill-rule="evenodd">
  <path d="m69.203 32.891c0-0.37891-1.9023-5.3242-1.5195-4.9414 0.76172 0.37891 2.6602 4.5625 3.8008 1.5195 0.37891-1.1406 1.9023-4.9414 3.043-5.7031 0 0-0.76172 4.1836-1.1406 4.5625-1.9023 4.1836-1.1406 3.8008 3.043 1.5195l-4.5625 4.5625c-1.1406 1.9023-1.1406 4.1836-1.9023 5.7031-1.1406 1.9023-3.4219 3.043 1.5195 1.5195 3.4219-1.5195 2.2812 0.37891 4.1836-3.4219 3.043-6.082-0.76172 3.4219 3.043 1.5195l9.8867-4.5625c1.1406 0-1.1406 1.5195-1.5195 1.5195-3.8008 2.6602-11.027 4.1836-5.7031 5.7031 2.6602 1.1406-0.37891 0.76172-1.1406 0.37891-7.6055-0.37891-24.336 6.4648-25.855 14.07-1.5195 9.125 0.76172 18.25 10.266 23.953 6.8438 3.8008 22.055 3.8008 23.574 9.8867-2.2812-0.37891-7.2227-4.5625-17.109-4.5625-5.7031 0 2.2812 5.3242-0.76172 4.5625-2.6602-0.76172-2.6602-2.6602-5.3242-4.1836-2.6602-1.5195-11.785-4.5625-13.688-1.1406-1.9023 3.043 4.9414 4.1836 2.2812 4.1836-2.2812 0-5.3242-1.9023-6.082-1.1406-4.5625 3.043 6.082 12.547-0.76172 7.9844-0.76172-0.37891-3.4219-2.6602-4.1836-2.2812-1.5195 0-2.2812 4.1836-5.3242 4.5625-0.76172 0.37891 0.37891-0.76172 1.1406-1.1406 1.1406-1.5195 0.76172-3.8008 1.5195-5.7031 0.76172-2.2812 2.2812-4.5625 3.043-6.4648 1.5195-4.5625-4.5625-4.5625-7.9844 0-1.5195 2.2812-2.6602 4.5625-6.082 5.7031-2.2812 0.76172 3.4219-2.6602 1.9023-4.5625-1.5195-2.6602-12.168 7.9844-14.07 8.3633-1.1406 0.37891 3.4219-3.043 3.043-4.5625l-7.6055 0.76172c11.785-4.5625 9.125-3.8008 20.531-11.027 5.3242-3.043 4.5625-3.8008 5.3242-8.7461 2.2812-14.449 2.6602-21.293-12.93-28.898-2.2812-1.1406-4.1836 0-6.8438-0.37891-1.1406 0 4.5625-0.76172 2.2812-2.2812-3.043-2.2812-6.8438-3.043-7.9844-6.8438-0.37891-1.5195 0.76172 1.9023 6.4648 4.1836 3.043 1.5195 1.1406-2.2812 1.9023-3.8008 0 0 1.1406 3.043 1.1406 3.4219 0.37891 0.37891 5.3242 6.082 5.3242 1.1406 0-5.7031-0.37891 3.4219 7.6055 6.082 11.406 4.1836 1.5195-14.07-0.76172-15.59-1.1406-0.76172-5.7031-1.9023-6.082-2.2812 1.1406-0.37891 5.3242 0.76172 4.1836-0.76172-1.5195-3.043-3.8008-4.9414-4.9414-9.125-0.37891-2.6602 5.3242 10.645 6.082 4.9414l0.76172 1.5195 6.4648 10.266c0.76172 0 5.7031-8.7461 5.7031-10.266 0.37891-1.5195-0.76172-4.5625-0.37891-5.3242 0-0.37891 1.5195 4.1836 3.043 1.5195 0.76172-1.9023 1.5195-3.4219 3.8008-4.5625 1.1406-0.76172-1.9023 0.76172-3.8008 8.7461l-1.9023 4.9414c-1.1406 1.5195-6.082 13.688 1.1406 7.6055 4.5625-3.8008 1.9023-1.5195 0 0.76172-5.3242 6.4648 3.8008 14.828 15.59 6.4648 3.043-1.9023 5.7031-6.4648 5.3242-9.8867z"/>
  <path d="m90.496 22.242c-3.043 2.6602-4.5625 7.2227-3.4219 11.406 3.043-2.6602 4.5625-7.2227 3.4219-11.406zm-1.5195-14.449c-4.1836 0.76172-7.9844 3.8008-9.125 7.6055 4.1836-0.37891 7.6055-3.8008 9.125-7.6055zm-9.5039-5.7031c-3.4219 2.2812-5.7031 6.4648-5.3242 10.645 3.8008-2.2812 5.7031-6.4648 5.3242-10.645zm9.8867 12.547c-4.1836-0.37891-8.3633 1.9023-10.645 5.3242 4.1836 0.37891 8.3633-1.9023 10.645-5.3242zm-31.559 20.152c2.2812 2.2812 6.4648 3.4219 9.8867 2.2812-2.6602-2.6602-6.4648-3.4219-9.8867-2.2812zm-21.672-2.6602c-3.043 0-5.7031 2.2812-6.8438 5.3242 3.043-0.37891 5.7031-2.6602 6.8438-5.3242zm21.672 6.4648c-2.6602-1.9023-6.082-2.6602-8.7461-1.5195 2.2812 2.2812 5.7031 2.6602 8.7461 1.5195zm2.6602-6.8438c-3.043-1.1406-6.4648-0.76172-8.7461 1.5195 2.6602 1.1406 6.4648 0.37891 8.7461-1.5195zm7.2227-26.996c-3.8008-0.37891-7.9844 1.9023-10.266 5.3242 4.1836 0.37891 8.3633-1.9023 10.266-5.3242zm1.5195 0c-1.1406 4.1836 0.37891 8.7461 3.8008 11.406 0.76172-4.1836-0.76172-8.7461-3.8008-11.406zm-6.4648 21.672c0 3.4219 1.9023 7.2227 5.3242 8.7461 0-3.4219-2.2812-7.2227-5.3242-8.7461zm-17.492-1.9023c0.37891-3.043-0.76172-6.4648-3.4219-7.9844-0.37891 3.043 0.76172 6.082 3.4219 7.9844zm-9.8867-2.2812c0-3.043 1.9023-6.082 4.9414-7.2227-0.37891 3.043-2.2812 6.082-4.9414 7.2227zm-8.7461 13.309c0-3.4219 1.9023-6.082 4.9414-7.6055-0.37891 3.043-2.2812 6.082-4.9414 7.6055zm-2.6602 19.391c-1.9023-3.4219-1.9023-7.9844 0.37891-11.406 2.2812 3.4219 1.9023 7.9844-0.37891 11.406zm-9.125-1.5195c0-4.1836 1.9023-8.3633 5.3242-10.645 0.37891 4.1836-1.5195 8.3633-5.3242 10.645zm62.355 2.6602c1.1406-3.8008 0.37891-8.7461-2.6602-11.406-1.1406 3.8008-0.37891 8.3633 2.6602 11.406zm8.3633-3.043c-0.76172-4.1836-3.8008-7.9844-7.6055-9.125 0.76172 4.1836 3.4219 7.6055 7.6055 9.125zm-3.043-25.855c-2.6602-1.1406-6.082-0.76172-8.7461 1.1406 3.043 1.5195 6.4648 0.76172 8.7461-1.1406zm-1.9023 6.4648c-2.6602-1.1406-6.082-0.76172-8.7461 1.5195 3.043 1.1406 6.4648 0.37891 8.7461-1.5195zm-23.953-5.3242c-3.043-1.5195-6.4648-1.5195-9.125 0.37891 2.6602 1.5195 6.4648 1.1406 9.125-0.37891zm29.656-6.4648c-4.1836-1.1406-8.3633 0.37891-11.027 3.8008 3.8008 0.76172 8.3633-0.76172 11.027-3.8008zm-22.434-3.8008c0 4.1836 2.6602 8.3633 6.082 10.266 0-4.1836-2.2812-8.3633-6.082-10.266zm4.5625-4.5625c-0.76172 3.8008 0.37891 8.3633 3.8008 11.027 0.76172-4.1836-0.76172-8.3633-3.8008-11.027zm9.125-1.9023c-2.6602 3.043-3.8008 7.6055-2.2812 11.785 2.6602-3.043 3.8008-7.6055 2.2812-11.785zm15.59 36.5c-1.9023-3.043-5.7031-4.9414-9.5039-4.5625 1.9023 3.043 5.7031 4.9414 9.5039 4.5625zm2.2812-2.6602c-1.5195-3.8008-5.7031-6.4648-9.8867-6.4648 1.9023 3.8008 5.7031 6.082 9.8867 6.4648zm4.5625-6.082c-2.6602-3.043-7.2227-4.1836-11.027-3.4219 2.6602 3.4219 7.2227 4.5625 11.027 3.4219zm-15.211-11.406c-2.6602 2.2812-3.4219 6.082-2.2812 9.5039 2.6602-2.6602 3.4219-6.4648 2.2812-9.5039zm14.07-1.5195c-3.8008 0.76172-7.6055 3.8008-8.7461 7.6055 4.1836-0.37891 7.6055-3.8008 8.7461-7.6055zm-36.121-1.9023c-3.043-2.6602-7.9844-2.6602-11.406-0.76172 3.4219 2.2812 7.9844 2.6602 11.406 0.76172zm0.37891-3.8008c-3.4219-3.043-7.9844-3.8008-11.785-2.2812 3.043 2.6602 7.6055 3.8008 11.785 2.2812zm1.9023-7.6055c-3.8008-1.5195-8.7461-1.1406-11.785 1.5195 3.8008 1.9023 8.3633 1.1406 11.785-1.5195zm-21.672-7.2227c-0.76172 4.1836 0.76172 8.3633 3.8008 11.027 1.1406-3.8008-0.37891-8.3633-3.8008-11.027zm6.082-4.5625c-1.9023 3.8008-1.5195 8.3633 1.1406 11.785 1.5195-3.8008 1.1406-8.3633-1.1406-11.785zm9.125 0.37891c-3.4219 2.2812-5.3242 6.4648-4.9414 10.645 3.4219-2.2812 5.7031-6.4648 4.9414-10.645zm-36.5 25.855c2.2812 2.2812 3.4219 5.7031 2.6602 8.3633-2.2812-1.9023-3.4219-5.3242-2.6602-8.3633zm-14.449 19.012c1.9023-3.8008 5.7031-6.4648 9.8867-6.4648-1.9023 3.8008-5.7031 6.4648-9.8867 6.4648zm-4.1836-5.3242c2.2812-3.4219 6.8438-4.9414 10.645-4.1836-2.2812 3.043-6.8438 4.9414-10.645 4.1836zm-3.4219-6.8438c3.4219-2.2812 7.9844-2.6602 11.785-0.76172-3.4219 2.2812-7.9844 2.6602-11.785 0.76172zm19.012-8.3633c1.1406 3.043 0.76172 6.4648-1.1406 8.7461-1.5195-2.6602-0.76172-6.082 1.1406-8.7461zm-5.7031-6.082c2.2812 3.043 2.6602 7.9844 0.76172 11.406-2.2812-3.043-2.6602-7.9844-0.76172-11.406zm-9.5039 1.9023c3.8008 1.5195 6.8438 5.3242 7.2227 9.5039-3.8008-1.5195-6.8438-5.3242-7.2227-9.5039zm14.828 3.4219c3.043-1.5195 6.4648-1.5195 9.125 0.37891-2.6602 1.5195-6.4648 1.1406-9.125-0.37891zm-2.2812-3.8008c3.4219-2.2812 7.9844-2.6602 11.785-0.76172-3.4219 2.2812-7.9844 2.6602-11.785 0.76172zm-1.1406-7.2227c3.8008-1.5195 8.3633-0.37891 11.406 2.6602-3.8008 1.1406-8.3633 0-11.406-2.6602zm22.055-5.3242c0.37891 4.1836-1.5195 8.3633-4.9414 10.645-0.37891-4.1836 1.5195-8.3633 4.9414-10.645zm-5.3242-4.9414c1.5195 3.8008 0.37891 8.3633-2.2812 11.406-1.5195-3.8008-0.76172-8.7461 2.2812-11.406zm-9.5039-0.76172c3.4219 2.6602 4.9414 7.2227 3.8008 11.027-3.043-2.2812-4.5625-6.8438-3.8008-11.027z"/>
 </g>
</svg>
