<?xml version="1.0" encoding="UTF-8"?>
<svg width="100pt" height="100pt" version="1.1" viewBox="0 0 100 100" xmlns="http://www.w3.org/2000/svg">
 <g fill-rule="evenodd">
  <path d="m46.398 96.668c-0.41797-9.4258-7.0977-18.227-13.016-29.938-11.047-4.2734-13.887-13.461-22.102-13.426 7.8281-0.90234 12.016 5.25 19.848 8.7031-5.4766-12.242-9.3555-27.699-5.0781-49.676 0.03125-0.16016 0.011719 26.266 2.7773 27.199 8.9023-5.2617 10.008-13.16 15.316-21.188-4.375 11.379-4.1523 13.492-11.84 22.746-5.6289 6.7734 7.2734 29.332 11.023 30.508 18.414 0.34766 18.871-25.672 19.602-36.336 1.5469 0.082031 2.6719 12.336-1.1953 26.461 14.832-0.72266 19.082-13.047 29.539-11.84-9.7188-0.039062-11.91 12.836-29.09 15.195-0.27344 0.027344-7.0195 8.3555-14.902 11.754 2.2305 2.6094 6.4961 9.9414 7.2734 16.301 8.2422-3.3945 12.441-9.9023 20.477-8.9727-7.8008-0.03125-10.754 8.25-20.492 12.746 0 4.0664-8.0508 4.2578-8.1484-0.23828z"/>
  <path d="m90.484 49.043c6.2773 1.7852 5.2344-6.1523 8.6719-7.3281-4.2539-1.5391-10.887 0.74219-8.6719 7.3281z"/>
  <path d="m83.957 50.469c5.7812-3.0352-0.44922-8.0664 1.2344-11.285-4.1406 1.8164-7.3789 8.043-1.2344 11.285z"/>
  <path d="m86.477 51.617c6.3711-1.418 4.8711 6.4453 8.2344 7.8164-4.3359 1.2891-10.828-1.3711-8.2344-7.8164z"/>
  <path d="m62.84 34.117c4.2148-4.9844-3.4492-7.3047-3.1055-10.918-3.1523 3.2422-3.8086 10.227 3.1055 10.918z"/>
  <path d="m62.312 38.566c-0.38281-6.5156-7.5352-2.9141-9.7773-5.7695-0.046875 4.5195 4.2891 10.035 9.7773 5.7695z"/>
  <path d="m64.395 36.742c1.3281-6.3906 7.8789-1.7852 10.512-4.2852-0.60938 4.4805-5.707 9.3008-10.512 4.2852z"/>
  <path d="m46.402 15.543c6.168-2.1328 0.76562-8.043 2.9102-10.973-4.3672 1.1758-8.5 6.8477-2.9102 10.973z"/>
  <path d="m40.516 22.121c5.2617-3.8594-2.0781-5.6797-0.89453-9.1133-2.2422 2.7031-5.6641 6.8242 0.89453 9.1133z"/>
  <path d="m44.594 19.949c4.4062-4.8125 7.6836 2.4922 11.227 1.6875-2.8125 3.5391-9.6562 5.082-11.227-1.6875z"/>
  <path d="m26.031 11.191c4.7266-4.5-2.6406-7.6367-1.9062-11.191-3.4844 2.8828-4.8945 9.7539 1.9062 11.191z"/>
  <path d="m24.52 16.531c0.32422-6.5195-7.1758-3.7109-9.0938-6.793-0.53906 4.4883 3.1797 10.441 9.0938 6.793z"/>
  <path d="m26.93 13.004c2.0156-6.207 8.0273-0.92188 10.914-3.1211-1.0938 4.3867-6.6797 8.6289-10.914 3.1211z"/>
  <path d="m19.977 57.961c-0.86719 6.4688-7.7305 2.3477-10.176 5.0312 0.28516-4.5117 5.0234-9.6875 10.176-5.0312z"/>
  <path d="m11.02 53.91c-0.86719 6.4688-7.7305 2.3477-10.176 5.0312 0.28516-4.5117 5.0234-9.6875 10.176-5.0312z"/>
  <path d="m14.59 52.586c3.875-5.2539-3.9258-7.0586-3.8203-10.691-2.9297 3.4453-3.1211 10.457 3.8203 10.691z"/>
  <path d="m21.914 55.574c5.3359-3.7578-1.4883-7.9414-0.24219-11.352-3.8711 2.3398-6.2734 8.9297 0.24219 11.352z"/>
  <path d="m27.215 22.836c3.8047 2.9023 5.2227-2.793 7.8828-2.6719-2.4883-2.1914-7.6289-2.418-7.8828 2.6719z"/>
  <path d="m75.527 83.871c5.4492 3.5898 6.8438-4.2969 10.473-4.3828-3.5938-2.7461-10.609-2.5664-10.473 4.3828z"/>
  <path d="m71.469 82.793c5.7812-3.0312-0.44922-8.0664 1.2344-11.285-4.1406 1.8164-7.3789 8.043-1.2344 11.285z"/>
  <path d="m72.695 85.234c6.3711-1.418 4.8711 6.4453 8.2344 7.8164-4.3359 1.2891-10.828-1.3711-8.2344-7.8164z"/>
 </g>
</svg>
