<?xml version="1.0" encoding="UTF-8"?>
<svg width="100pt" height="100pt" version="1.1" viewBox="0 0 100 100" xmlns="http://www.w3.org/2000/svg">
 <path d="m42.363 100c9.8516-54.023-7.2266-36.617-26.766-55.008l0.32812-0.16406c4.5977 2.957 8.7031 4.5977 12.645 5.418-3.7773-6.7305-4.2695-14.941-3.2852-23.645l0.65625 0.16406c0.49219 12.316 2.957 21.02 8.2109 24.301 6.7305 2.3008 11.164 5.0898 13.465 8.375-5.2539-23.152-4.4336-35.633-1.1484-44.172l0.65625-0.32812c-1.6406 12.809-0.98438 22.168 1.3125 28.57 2.957-8.7031 8.5391-15.434 17.734-19.211h0.65625c-11.66 7.2266-19.211 21.184-14.613 34.812 8.375-9.5234 19.703-10.344 24.301-22.66l0.65625-0.16406c-1.1484 4.9258-6.8984 12.809-11 15.27 1.9688 1.9688 8.7031 1.9688 16.422 1.4766l-0.32812 0.49219c-6.0742 1.6406-12.48 1.9688-19.047 1.1484-15.598 7.8828-7.8828 29.062-9.8516 44.664l-11 0.65625zm15.27-34.32c-0.49219 2.957 2.1328 5.7461 4.1055 5.9102 0.65625-0.82031 0.16406-5.2539-4.1055-5.9102zm5.0898 0.49219c0.16406 2.957 3.1211 5.418 5.2539 5.2539 0.49219-0.98438-0.82031-5.2539-5.2539-5.2539zm7.8828-1.8047c-0.16406 2.957 2.4648 5.582 4.5977 5.582 0.49219-0.82031-0.16406-5.0898-4.5977-5.582zm-8.8672-7.7188c-1.6406 2.6289-0.32812 6.2383 1.4766 7.2266 0.82031-0.49219 2.1328-4.5977-1.4766-7.2266zm5.582-0.32813c-1.1484 2.793 0.49219 6.2383 2.3008 7.0625 0.98438-0.65625 1.6406-4.9258-2.3008-7.0625zm4.5977 0.98438c0 2.957 2.793 5.582 4.9258 5.582 0.49219-0.98438-0.49219-5.2539-4.9258-5.582zm5.2539-1.3125c-0.16406 2.957 2.793 5.418 4.7617 5.418 0.49219-0.98438-0.32812-5.2539-4.7617-5.418zm4.2695-0.16406c1.4766 2.6289 5.2539 3.2852 7.0625 2.3008 0-1.1484-2.957-4.2695-7.0625-2.3008zm9.6875-5.418c-2.6289-1.3125-6.0742 0.32812-6.8984 2.1328 0.65625 0.98438 4.9258 1.8047 6.8984-2.1328zm2.4648-10.344c-2.957 0.32812-5.2539 3.4492-4.9258 5.582 0.98438 0.32812 5.0898-1.1484 4.9258-5.582zm-4.2695-3.1211c-3.1211 0.32813-5.2539 3.6133-4.9258 5.582 0.98437 0.32812 5.0898-1.1484 4.9258-5.582zm-3.9414 8.5391c-2.957 0.32812-5.0898 3.6133-4.9258 5.582 1.1484 0.32812 5.0898-1.1484 4.9258-5.582zm-6.8984 4.5977c-1.8047-2.4648-5.7461-2.6289-7.2266-1.3125 0.16406 1.1484 3.4492 3.7773 7.2266 1.3125zm3.1211-6.5664c-2.6289-1.1484-6.2383 0.49219-6.8984 2.3008 0.65625 0.82031 4.9258 1.8047 6.8984-2.3008zm1.9688-4.2695c-2.793-1.1484-6.2383 0.49219-6.8984 2.3008 0.65625 0.82031 4.7617 1.8047 6.8984-2.3008zm0.32812-5.582c-2.957-0.49219-5.9102 2.1328-6.0742 4.1055 0.82031 0.65625 5.0898 0.32812 6.0742-4.1055zm1.1484-16.914c-1.9688 2.1328-1.6406 5.9102 0 7.2266 0.98438-0.32812 3.1211-3.9414 0-7.2266zm-22.168-8.2109c-2.957 0.98438-4.4336 4.4336-3.6133 6.4023 0.98438 0.16406 4.7617-1.9688 3.6133-6.4023zm-8.375-8.375c-2.957 1.9688-3.4492 6.4023-2.1328 8.375 1.3125-0.16406 4.7617-3.7773 2.1328-8.375zm2.3008 7.8828c-2.957 1.8047-3.4492 6.2383-2.1328 8.2109 1.3125 0 4.7617-3.7773 2.1328-8.2109zm-0.65625 12.973c-2.1328 2.1328-1.8047 5.9102-0.49219 7.3906 1.1484-0.32812 3.4492-3.9414 0.49219-7.3906zm6.4023-3.6133c-2.4648 1.8047-2.6289 5.582-1.3125 7.2266 1.1484-0.16406 3.7773-3.6133 1.3125-7.2266zm7.3906 10.672c-1.1484-1.3125-3.4492-1.4766-4.2695-0.65625 0 0.65625 2.1328 2.3008 4.2695 0.65625zm-3.1211 4.9258c-1.9688-2.3008-5.7461-2.3008-7.2266-0.98438 0.16406 0.98438 3.6133 3.6133 7.2266 0.98438zm-3.4492 5.0898c-1.9688-2.3008-5.7461-2.3008-7.2266-0.98438 0.16406 0.98438 3.6133 3.6133 7.2266 0.98438zm-2.957 5.2539c-1.8047-2.4648-5.7461-2.4648-7.2266-1.1484 0.16406 1.1484 3.6133 3.7773 7.2266 1.1484zm-1.9688 5.7461c-1.8047-2.3008-5.582-2.3008-7.2266-0.98438 0.32812 0.98438 3.6133 3.6133 7.2266 0.98438zm1.9688-5.0898c-2.1328 1.9688-2.1328 5.9102-0.65625 7.2266 0.98438-0.16406 3.4492-3.7773 0.65625-7.2266zm3.4492-2.957c-1.9688 2.3008-1.1484 6.0742 0.49219 7.3906 0.98438-0.49219 2.793-4.4336-0.49219-7.3906zm3.7773-4.7617c-1.9688 2.3008-1.1484 6.0742 0.49219 7.3906 0.98438-0.49219 2.793-4.2695-0.49219-7.3906zm4.2695-3.2852c-1.9688 2.3008-1.3125 6.0742 0.32813 7.2266 1.1484-0.32812 2.957-4.2695-0.32813-7.2266zm9.3594-14.121c-2.793 0.98438-4.2695 4.5977-3.6133 6.4023 1.1484 0.16406 4.7617-1.9688 3.6133-6.4023zm7.5547 6.7305c-2.6289 1.3125-3.6133 4.9258-2.793 6.7305 1.1484 0.16406 4.5977-2.6289 2.793-6.7305zm3.7773 2.957c-2.6289 1.3125-3.6133 5.0898-2.793 6.8984 1.1484 0 4.5977-2.793 2.793-6.8984zm-9.0312-3.1211c-2.6289 1.3125-3.6133 5.0898-2.6289 6.8984 0.98438 0 4.4336-2.6289 2.6289-6.8984zm-5.582 2.957c-2.793 1.3125-3.7773 4.9258-2.793 6.7305 1.1484 0.16406 4.4336-2.6289 2.793-6.7305zm-2.957-6.5664c-2.793 1.3125-3.7773 5.0898-2.793 6.8984 0.98437 0 4.4336-2.6289 2.793-6.8984zm-3.7773-3.6133c-2.957 0-5.418 2.957-5.418 4.9258 0.98438 0.49219 5.2539-0.49219 5.418-4.9258zm-2.6289-7.8828c-2.6289 1.3125-3.6133 4.9258-2.6289 6.7305 0.98438 0.16406 4.4336-2.6289 2.6289-6.7305zm7.2266 2.4648c-2.6289 1.1484-3.6133 4.9258-2.793 6.7305 1.1484 0 4.4336-2.6289 2.793-6.7305zm4.5977-3.2852c-2.4648 1.6406-2.6289 5.582-1.3125 7.0625 0.98438-0.16406 3.7773-3.4492 1.3125-7.0625zm-4.7617-4.5977c-2.793 0.98438-4.1055 4.5977-3.4492 6.5664 1.1484 0.16406 4.7617-2.3008 3.4492-6.5664zm-5.7461-2.6289c-2.793 0.98438-4.1055 4.5977-3.2852 6.5664 0.98438 0.16406 4.5977-2.3008 3.2852-6.5664zm-8.0469-1.4766c-2.793 0.98438-4.1055 4.5977-3.4492 6.4023 1.1484 0.16406 4.7617-2.1328 3.4492-6.4023zm-13.465 4.2695c-2.1328 1.1484-2.793 4.2695-1.9688 5.7461 0.82031 0 3.6133-2.4648 1.9688-5.7461zm-2.957-5.0898c-2.793 0.98438-4.1055 4.5977-3.4492 6.4023 1.1484 0.16406 4.7617-2.1328 3.4492-6.4023zm-9.0312 2.793c-1.3125 2.793 0.32813 6.2383 2.1328 7.0625 0.82031-0.65625 1.8047-4.9258-2.1328-7.0625zm-1.9688 6.2383c-1.9688 2.1328-1.6406 5.9102 0 7.2266 0.98438-0.32812 3.1211-4.1055 0-7.2266zm-7.0625 3.1211c-0.82031 2.793 1.3125 6.0742 3.2852 6.5664 0.82031-0.82031 0.98438-5.0898-3.2852-6.5664zm-4.4336-5.418c-1.4766 2.6289-0.16406 6.2383 1.6406 7.2266 0.98438-0.65625 2.1328-4.7617-1.6406-7.2266zm5.418-3.1211c-0.98438 2.793 0.82031 6.2383 2.793 6.8984 0.82031-0.82031 1.3125-5.0898-2.793-6.8984zm-2.6289 14.941c-1.9688 2.1328-1.4766 5.9102 0 7.3906 0.98438-0.49219 3.1211-4.2695 0-7.3906zm8.5391 0.82031c-1.9688 2.1328-1.4766 5.9102 0 7.2266 0.98438-0.32812 3.1211-4.1055 0-7.2266zm18.555 9.8516c-2.957 0.16406-5.2539 3.4492-4.9258 5.418 0.98438 0.49219 5.0898-0.98438 4.9258-5.418zm-0.98438-5.582c-2.957 0.16406-5.2539 3.4492-4.9258 5.418 0.98438 0.49219 5.0898-0.98438 4.9258-5.418zm0.16406-6.5664c-2.957 0.32812-5.2539 3.4492-4.9258 5.418 0.98437 0.49219 5.0898-0.82031 4.9258-5.418zm0.32812-6.5664c-3.1211 0.16406-5.2539 3.2852-4.9258 5.418 0.98438 0.32812 5.0898-0.98438 4.9258-5.418zm-9.1953-2.1328c-1.3125 2.6289 0.32812 6.0742 2.3008 6.8984 0.82031-0.65625 1.6406-4.9258-2.3008-6.8984zm-3.1211 4.5977c-0.65625 2.957 1.6406 5.9102 3.6133 6.2383 0.82031-0.82031 0.65625-5.0898-3.6133-6.2383zm-2.3008 5.9102c-0.16406 2.957 2.6289 5.582 4.5977 5.582 0.65625-0.98438-0.16406-5.2539-4.5977-5.582zm0.16406 6.4023c-0.16406 2.957 2.6289 5.582 4.7617 5.582 0.49219-0.98438-0.32813-5.2539-4.7617-5.582zm-0.82031 8.2109c0.49219 2.957 3.7773 4.9258 5.7461 4.4336 0.32812-0.98438-1.3125-4.9258-5.7461-4.4336zm0.82031 7.0625c0.49219 2.957 3.7773 4.7617 5.7461 4.4336 0.32813-0.98438-1.3125-5.0898-5.7461-4.4336zm2.6289 8.0469c0.32812 2.3008 2.957 3.7773 4.4336 3.4492 0.32812-0.82031-0.98438-3.7773-4.4336-3.4492zm-2.793-4.5977c-2.1328 2.1328-1.8047 5.9102-0.32812 7.2266 0.98438-0.32812 3.2852-3.9414 0.32812-7.2266zm-3.1211-2.4648c-2.793 1.1484-3.9414 4.7617-3.1211 6.5664 1.1484 0.16406 4.5977-2.3008 3.1211-6.5664zm0.32813-5.0898c-2.793-0.82031-5.9102 1.3125-6.4023 3.2852 0.82031 0.82031 5.0898 0.82031 6.4023-3.2852zm-3.2852-11.66c-2.957 0.32812-4.9258 3.6133-4.4336 5.582 0.98437 0.32812 4.9258-1.3125 4.4336-5.582zm1.8047 5.9102c-2.957 0-5.582 2.793-5.582 4.7617 0.98437 0.65625 5.2539-0.32812 5.582-4.7617zm-16.094-15.598c0.16406 2.957 3.1211 5.2539 5.0898 5.0898 0.49219-0.98437-0.65625-5.0898-5.0898-5.0898zm-4.4336 3.7773c-0.82031 2.957 1.3125 6.0742 3.2852 6.5664 0.65625-0.82031 0.82031-5.0898-3.2852-6.5664zm6.5664 5.2539c0 2.957 2.957 5.2539 4.9258 5.2539 0.49219-0.98438-0.65625-5.0898-4.9258-5.2539zm-0.82031 6.0742c0 2.957 2.957 5.2539 5.0898 5.2539 0.49219-0.98438-0.65625-5.0898-5.0898-5.2539zm0.65625 6.7305c0.82031 2.6289 3.7773 3.7773 5.582 3.1211 0.16406-0.82031-1.9688-4.1055-5.582-3.1211zm2.4648 4.7617c-1.6406 1.1484-1.9688 3.7773-1.1484 4.9258 0.65625-0.16406 2.793-2.3008 1.1484-4.9258zm-9.1953-13.629c-0.82031 2.793 1.3125 5.9102 3.2852 6.4023 0.82031-0.82031 0.98438-5.0898-3.2852-6.4023zm-5.2539-1.4766c-0.82031 2.793 1.3125 6.0742 3.1211 6.4023 0.82031-0.65625 0.98437-4.9258-3.1211-6.4023zm9.3594 11.164c-1.4766 2.4648-0.32812 6.0742 1.4766 7.0625 0.98438-0.49219 2.1328-4.5977-1.4766-7.0625zm-3.9414-1.3125c-1.4766 2.4648-0.16406 6.0742 1.4766 7.0625 0.98438-0.49219 2.3008-4.5977-1.4766-7.0625zm-6.2383-0.98438c-0.82031 2.793 1.3125 5.9102 3.2852 6.4023 0.82031-0.82031 0.98437-5.0898-3.2852-6.4023zm1.4766 13.137c2.793 0.16406 5.2539-2.3008 5.2539-4.1055-0.82031-0.65625-4.7617 0-5.2539 4.1055zm4.1055 3.6133c2.793 0.16406 5.2539-2.3008 5.2539-4.2695-0.82031-0.49219-4.7617 0.16406-5.2539 4.2695zm-0.65625 9.1953c3.1211-0.32812 5.418-3.6133 5.2539-5.7461-1.1484-0.49219-5.418 0.98438-5.2539 5.7461zm5.0898-7.0625c2.6289 0.16406 5.0898-2.3008 5.2539-4.2695-0.82031-0.49219-4.7617 0.16406-5.2539 4.2695zm3.7773 3.2852c3.1211 0.16406 6.0742-2.6289 6.0742-4.7617-0.98438-0.65625-5.418 0-6.0742 4.7617zm6.4023 3.7773c3.1211-0.82031 4.1055-3.9414 4.1055-6.0742-1.6406-1.1484-5.582 1.1484-4.1055 6.0742zm4.2695 1.6406c3.1211 0.16406 5.9102-2.6289 6.0742-4.7617-0.98438-0.65625-5.582 0-6.0742 4.7617zm4.2695 4.1055c3.1211 0.32812 6.0742-2.6289 6.0742-4.7617-0.98438-0.65625-5.418 0.16406-6.0742 4.7617zm5.9102 5.9102c2.793-1.6406 3.4492-5.582 2.3008-7.3906-1.1484 0-4.4336 3.2852-2.3008 7.3906zm-10.18-0.82031c2.793-1.4766 3.1211-4.7617 2.793-6.8984-1.8047-0.82031-5.2539 2.4648-2.793 6.8984zm-11.328-7.2266c3.1211-0.82031 4.1055-3.9414 4.1055-6.2383-1.6406-0.98438-5.582 1.3125-4.1055 6.2383zm5.2539 3.7773c3.1211-0.82031 4.1055-4.1055 4.1055-6.2383-1.6406-1.1484-5.582 1.3125-4.1055 6.2383z" fill-rule="evenodd"/>
</svg>
