<?xml version="1.0" encoding="UTF-8"?>
<svg width="100pt" height="100pt" version="1.1" viewBox="0 0 100 100" xmlns="http://www.w3.org/2000/svg">
 <g>
  <path d="m70.25 44.621c-0.003906-6-4.8594-10.863-10.859-10.883-2.0039-4.6172-6.9297-7.2422-11.879-6.3242-4.9492 0.91797-8.6094 5.1367-8.8203 10.164-0.29297-0.011719-0.58203-0.011719-0.87109 0-3.6875 0.03125-6.8906 2.5391-7.8125 6.1094-0.92187 3.5664 0.67188 7.3125 3.8828 9.1211-0.082031 0.49219-0.12109 0.99219-0.12109 1.4922-0.023437 3.6719 2.082 7.0273 5.4062 8.5977 3.3203 1.5703 7.25 1.0742 10.074-1.2773v-16.121c0-0.69141 0.55859-1.25 1.25-1.25s1.25 0.55859 1.25 1.25v6.7188l3.4688-3.5c0.48828-0.49219 1.2812-0.49609 1.7695-0.007812 0.49219 0.48437 0.49609 1.2773 0.011719 1.7695l-5.25 5.2891v5.7617c2.3398 2.2305 5.7891 2.8438 8.7578 1.5625 2.9688-1.2852 4.8828-4.2188 4.8633-7.4531 0.003906-0.60547-0.0625-1.2109-0.19922-1.8008 3.1758-1.9844 5.0977-5.4727 5.0781-9.2188z"/>
  <path d="m50.602 60.191c-0.40625 0.50391-0.85547 0.96484-1.3516 1.3789v9.9297c0 0.69141 0.55859 1.25 1.25 1.25s1.25-0.55859 1.25-1.25v-10c-0.42969-0.39453-0.81641-0.83203-1.1484-1.3086z"/>
 </g>
</svg>
