<?xml version="1.0" encoding="UTF-8"?>
<svg width="100pt" height="100pt" version="1.1" viewBox="0 0 100 100" xmlns="http://www.w3.org/2000/svg">
 <path d="m31.781 60.371c-1.293 1.4727-3.1875 2.4023-5.3008 2.4023-0.88281 0-1.7227-0.16016-2.5-0.45313-0.91016 0.90234-2.1641 1.4609-3.5508 1.4609-2.7812 0-5.0391-2.2578-5.0391-5.0391v-0.10156c-0.32422 0.066406-0.66406 0.10156-1.0078 0.10156-2.7852 0-5.0391-2.2578-5.0391-5.043 0-1.4414 0.60547-2.7422 1.5742-3.6602-1.543-0.86328-2.5859-2.5117-2.5859-4.4023 0-2.1836 1.3867-4.043 3.3281-4.7422 0.22266-0.61719 0.55859-1.1758 0.98828-1.6523-0.18359-0.52344-0.28516-1.0859-0.28516-1.6719 0-2.4805 1.793-4.543 4.1523-4.9648-0.078125-0.34766-0.11719-0.71094-0.11719-1.0859 0-1.1328 0.375-2.1797 1.0078-3.0234-0.63281-0.84375-1.0078-1.8906-1.0078-3.0234 0-2.7852 2.2578-5.043 5.043-5.043 0.85547 0 1.6602 0.21484 2.3633 0.58984 0.72266-0.76953 1.6797-1.3125 2.7578-1.5117 0.40234-2.1602 2.1758-3.8359 4.3828-4.0859-0.27734-0.625-0.43359-1.3164-0.43359-2.0469 0-2.7852 2.2578-5.043 5.043-5.043 1.9492 0 3.6406 1.1094 4.4766 2.7266 0.75391-0.44922 1.6367-0.70703 2.582-0.70703 1.8789 0 3.5156 1.0273 4.3828 2.5508 1.1992-1.5508 3.0781-2.5508 5.1914-2.5508 3.5938 0 6.5078 2.8867 6.5547 6.4648 0.61719-0.26953 1.2969-0.41797 2.0156-0.41797 2.7812 0 5.0391 2.2578 5.0391 5.0391 0 0.14453-0.003906 0.28906-0.015625 0.42969 0.62109-0.27344 1.3086-0.42969 2.0352-0.42969 1.9492 0 3.6367 1.1094 4.4766 2.7266 0.75391-0.44922 1.6367-0.70703 2.5781-0.70703 0.85547 0 1.6602 0.21094 2.3672 0.58984 0.91797-0.98438 2.2305-1.5977 3.6797-1.5977 1.6523 0 3.1133 0.78906 4.0352 2.0156 2.1797 0 4.0391 1.3828 4.7422 3.3242 1.9375 0.70313 3.3242 2.5586 3.3242 4.7383 0 1.793-0.9375 3.3672-2.3438 4.2617 0.21094 0.55469 0.32422 1.1602 0.32422 1.7891 0 1.1328-0.375 2.1797-1.0078 3.0234 1.2266 0.92188 2.0156 2.3828 2.0156 4.0352 0 0.62891-0.11328 1.2305-0.32422 1.7891 1.4062 0.89453 2.3438 2.4648 2.3438 4.2578 0 0.91797-0.24609 1.7812-0.67578 2.5195 0.42969 0.74219 0.67578 1.6055 0.67578 2.5195 0 2.7852-2.2578 5.043-5.043 5.043 0 2.7852-2.2539 5.0391-5.0391 5.0391-1.6484 0-3.1133-0.78906-4.0312-2.0156-2.7266 0-4.9453-2.1602-5.0391-4.8594-2.6289 5.1055-10.016 6.7188-13.613 6.875-1.2109 4.0352-5.8828 5.7148-8.0664 6.0508-1.2109 0.80469 1.1758 3.0234 2.5195 4.0312 2.0156 1.2109 2.1836 6.8906 2.0156 9.5781 2.2773-0.97656 3.5078-0.69141 4.9062-0.36719 0.76562 0.17969 1.5859 0.36719 2.6562 0.36719 1.7969 0 1.9922 0.17969 2.3828 0.53516 0.26953 0.24219 0.625 0.56641 1.6484 0.97656 2.5234 1.0078 2.5234 2.0156-2.0156 4.5391-3.6289 2.0156-12.266 1.8477-16.129 1.5117-4.0352 0-7.0586-1.0078-8.0664-1.5117-4.0352-0.80859-3.3594-3.0273-2.5195-4.0352 0.80469-2.0156 3.3594-2.1836 4.5352-2.0156 4.0352-0.80469 6.0508-0.33594 6.5547 0 1.0078-4.0312-4.5391-17.641-8.5703-18.648-3.2266-0.80859-4.3672-2.0195-4.5352-2.5234-1.8164-2.4219-4.6914-4.0469-6.7969-4.9219zm8.5586-17.582c0.88672-0.58594 1.5781-1.4414 1.9531-2.4531 0.89062 0.78906 2.0586 1.2656 3.3398 1.2656 0.71484 0 1.3906-0.14844 2.0078-0.41406-1.0117 2.75-3.0625 6.6523-6.0391 7.9766-0.83203-0.55469-2.0078-2.5273-1.2617-6.375zm-2.7734 6.7656v0.11328c0 2.4688-1.7734 4.5195-4.1133 4.957 0.054687 0.35547 0.082031 0.71875 0.082031 1.0898 0 0.92578-0.17969 1.8125-0.50391 2.6211 1.4492 0.29687 2.6055 1.2227 4.0703 2.3984 0.96875 0.77344 2.0742 1.6602 3.4922 2.543 3.2266 2.0156 3.0234 0.83984 2.5195 0-2.9141-4.2578-4.6133-9.332-5.5469-13.723zm36.684 8.4414c-1.4414-0.88672-2.4023-2.4805-2.4023-4.2969 0-0.34375 0.035156-0.68359 0.10156-1.0078h-0.10156c-1.6484 0-3.1133-0.79297-4.0312-2.0156-0.84375 0.63281-1.8906 1.0078-3.0273 1.0078-0.12891 0-0.25391-0.003906-0.38281-0.015625 1.0938 3.6016 0.10938 8.4023-0.625 10.602 4.6055 0.32812 8.4023-2.2266 10.469-4.2734zm-12.598-7.4062c0.86719 5.3438 0.66797 14.438-6.9453 16.719-5.0391 1.5156-7.7305-1.5117-7.0547-5.0391 0.11328-0.81641 0.79688-1.7109 1.5391-2.6875 0.32812-0.43359 0.67188-0.88281 0.98047-1.3438 3.3828-1.2695 8.8906-5.0195 10.582-8.5781 0.25781 0.34766 0.5625 0.66016 0.89844 0.92969zm-1.4531-1.8633c-0.28906-0.63672-0.44922-1.3398-0.44922-2.082v-0.10156c-1.5117-0.30859-2.7812-1.293-3.4727-2.625-0.75391 0.44922-1.6367 0.70703-2.5781 0.70703-0.24219 0-0.47656-0.015625-0.71094-0.046875-0.37109 1.1133-1.3047 3-3.3203 5.5938-2.8242 3.6289-1.8477 4.8711-1.0078 5.0391 3.8672 0 8.7852-3.832 11.539-6.4844zm-8.9375-4.7266c-0.90625-0.50391-1.6406-1.2734-2.0938-2.2031-0.60938 4.1406-4.418 8.1758-6.5586 9.8867-1.2109 4.4375 0.50391 7.5625 1.5117 8.5703-0.45312-6.8242 1.9648-9.1328 3.9258-11 0.21094-0.20312 0.41406-0.39844 0.61328-0.59375 1.1797-1.1836 2.0742-3.1602 2.6016-4.6602z" fill-rule="evenodd"/>
</svg>
