<?xml version="1.0" encoding="UTF-8"?>
<svg width="100pt" height="100pt" version="1.1" viewBox="0 0 100 100" xmlns="http://www.w3.org/2000/svg">
 <path d="m49.996 8.5781c-1.4531 0-2.8867 0.078125-4.3008 0.22266 0.45703 5.332 2.3164 10.969 4.3945 17.012 2.0742-6.0312 3.9297-11.66 4.3906-16.988-1.4727-0.16016-2.9688-0.24609-4.4883-0.24609zm-7.3516 0.66406c-5.0078 0.89453-9.6992 2.6836-13.91 5.2031 1.2969 0.98047 2.3945 2.3125 3.3711 3.7812 1.6797 2.5312 3.0781 5.5703 4.5234 8.4844 1.4453 2.9141 2.9453 5.6875 4.6211 7.625 1.5508 1.7891 3.1211 2.8242 5.1055 2.9609 0.64844-2.2695 1.3633-4.4688 2.0859-6.625-2.543-7.3906-5.1758-14.426-5.8008-21.434zm14.898 0.035156c-0.625 7-3.2578 14.02-5.7969 21.398 0.72656 2.1562 1.4375 4.3594 2.0859 6.625 1.8555-0.11719 3.3203-1.0273 4.7812-2.6016 1.7305-1.8672 3.2773-4.6602 4.7578-7.6211 1.4805-2.9609 2.9023-6.0859 4.6016-8.6914 0.98438-1.5039 2.0898-2.8711 3.3984-3.8828-4.1836-2.5234-8.8516-4.3164-13.828-5.2305zm-18.18 3.8477s0.44922 2.7461-0.98828 4.4727c-1.4375 1.7266-4.2227 1.7852-4.2227 1.7852s-0.44922-2.7461 0.98828-4.4727c1.4375-1.7266 4.2227-1.7812 4.2227-1.7812zm21.465 0s2.7852 0.054688 4.2227 1.7812 0.99219 4.4727 0.99219 4.4727-2.7852-0.054687-4.2227-1.7852c-1.4375-1.7266-0.98828-4.4727-0.98828-4.4727zm-34.93 3.1875c-3.4375 2.4609-6.4883 5.4336-9.0273 8.8086 2.1641 0.89844 3.7383 2.7891 5.0625 5.0117 1.5664 2.625 2.9219 5.8477 4.668 9.2148 3.2578 6.2852 7.7227 13.031 16.879 17.238-0.082031-4.3828 0.39453-8.5703 1.207-12.566 0.25391-1.2539 0.55078-2.4844 0.85938-3.707-2.6719-0.38281-4.8789-1.9414-6.6172-3.9531-2.0234-2.3359-3.582-5.3125-5.0547-8.2773-1.4727-2.9609-2.8516-5.918-4.332-8.1484-1.1836-1.7852-2.3867-3.0234-3.6406-3.6211zm48.273 0.058594c-1.2461 0.63672-2.4414 1.8984-3.6211 3.7031-1.5078 2.3125-2.9141 5.3633-4.4258 8.3906-1.5117 3.0234-3.1289 6.0312-5.2617 8.332-1.6641 1.793-3.7578 3.1523-6.2305 3.5117 0.30859 1.2227 0.60547 2.4531 0.85938 3.7109 0.8125 4 1.293 8.1836 1.207 12.562 9.1289-4.1953 13.598-10.914 16.852-17.184 1.7539-3.3789 3.1133-6.6055 4.6836-9.2422 1.2969-2.1836 2.8359-4.0469 4.9336-4.9727-2.5312-3.3789-5.5742-6.3477-9.0039-8.8164zm-46.969 2.8359s0.44531 2.7461-0.99219 4.4727c-1.4375 1.7266-4.2227 1.7852-4.2227 1.7852s-0.44922-2.75 0.98828-4.4766c1.4375-1.7266 4.2227-1.7812 4.2227-1.7812zm45.773 0s2.7852 0.054688 4.2227 1.7812c1.4375 1.7266 0.99219 4.4766 0.99219 4.4766s-2.7852-0.054688-4.2227-1.7852c-1.4375-1.7266-0.98828-4.4727-0.98828-4.4727zm-30.426 0.31641s0.44922 2.75-0.98828 4.4766-4.2227 1.7812-4.2227 1.7812-0.44922-2.7461 0.99219-4.4727c1.4375-1.7266 4.2188-1.7852 4.2188-1.7852zm15.07 0s2.7852 0.054687 4.2227 1.7852c1.4375 1.7266 0.98828 4.4727 0.98828 4.4727s-2.7812-0.054688-4.2188-1.7812-0.99219-4.4766-0.99219-4.4766zm-11.711 5.7578s0.44922 2.75-0.98828 4.4766c-1.4375 1.7266-4.2227 1.7812-4.2227 1.7812s-0.44922-2.7461 0.98828-4.4727c1.4375-1.7266 4.2227-1.7852 4.2227-1.7852zm8.3516 0s2.7852 0.054688 4.2227 1.7812 0.98828 4.4727 0.98828 4.4727-2.7812-0.054687-4.2227-1.7812c-1.4375-1.7266-0.98828-4.4766-0.98828-4.4766zm-23.547 0.80078s0.44922 2.7461-0.98828 4.4727c-1.4375 1.7266-4.2227 1.7812-4.2227 1.7812s-0.44531-2.7461 0.99219-4.4727c1.4375-1.7266 4.2227-1.7852 4.2227-1.7852zm38.738 0s2.7852 0.054688 4.2227 1.7852c1.4375 1.7266 0.98828 4.4727 0.98828 4.4727s-2.7812-0.054688-4.2227-1.7812c-1.4375-1.7266-0.98828-4.4727-0.98828-4.4727zm-54.406 1.6719c-4.0977 6.4258-6.4805 14.055-6.4805 22.246 0 0.97656 0.046875 1.9414 0.10938 2.8984 3.9609-0.023438 5.2188-1.6953 7.7773-3.5703 1.3438-0.98047 2.9883-1.8984 5.2539-2.3672 1.5664-0.32422 3.4453-0.42578 5.7109-0.19531-1.3906-2.0195-2.5547-4.0547-3.5625-6.0039-1.8086-3.4922-3.1875-6.7148-4.582-9.0508-1.375-2.3086-2.6406-3.6016-4.2227-3.9609zm69.91 0.046875c-1.5156 0.41016-2.7461 1.6914-4.0781 3.9336-1.3984 2.3477-2.7773 5.582-4.5977 9.0859-1.0039 1.9336-2.1562 3.9492-3.5352 5.9531 2.2656-0.23047 4.1445-0.12891 5.7109 0.19531 2.2656 0.46875 3.9062 1.3828 5.25 2.3672 2.5195 1.8438 3.7695 3.4922 7.5898 3.5703 0.066406-0.95703 0.10938-1.9219 0.10938-2.8984 0-8.1758-2.3711-15.785-6.4531-22.203zm-67.203 3.7188s0.44922 2.75-0.98828 4.4766c-1.4375 1.7266-4.2227 1.7852-4.2227 1.7852s-0.44922-2.75 0.98828-4.4766c1.4375-1.7266 4.2227-1.7812 4.2227-1.7812zm16.312 0s0.44922 2.75-0.99219 4.4766c-1.4375 1.7266-4.2227 1.7852-4.2227 1.7852s-0.44922-2.75 0.98828-4.4766c1.4375-1.7266 4.2227-1.7812 4.2227-1.7812zm32.023 0s2.7852 0.054688 4.2227 1.7812c1.4375 1.7266 0.98828 4.4766 0.98828 4.4766s-2.7852-0.054688-4.2227-1.7852c-1.4375-1.7266-0.98828-4.4766-0.98828-4.4766zm16.312 0s2.7812 0.054688 4.2188 1.7812c1.4375 1.7266 0.99219 4.4766 0.99219 4.4766s-2.7852-0.054688-4.2227-1.7852c-1.4375-1.7266-0.98828-4.4766-0.98828-4.4766zm-32.324 4.1367c-0.92188 2.9219-1.7617 5.9062-2.3906 8.9766-1.8047 8.875-1.9883 18.418 2.3867 29.23 4.375-10.812 4.1953-20.355 2.3906-29.23-0.625-3.0703-1.4648-6.0547-2.3867-8.9766zm-29.77 0.98047s0.44922 2.7461-0.98828 4.4727-4.2227 1.7852-4.2227 1.7852-0.44922-2.75 0.98828-4.4766c1.4375-1.7266 4.2227-1.7812 4.2227-1.7812zm59.535 0s2.7852 0.054687 4.2227 1.7812c1.4375 1.7266 0.98828 4.4766 0.98828 4.4766s-2.7812-0.058593-4.2227-1.7852c-1.4375-1.7266-0.98828-4.4727-0.98828-4.4727zm-41.461 0.80078s0.44922 2.7461-0.99219 4.4727c-1.4375 1.7266-4.2227 1.7852-4.2227 1.7852s-0.44922-2.7461 0.99219-4.4727c1.4375-1.7266 4.2227-1.7852 4.2227-1.7852zm23.387 0s2.7852 0.054688 4.2227 1.7852c1.4375 1.7266 0.98828 4.4727 0.98828 4.4727s-2.7852-0.054687-4.2227-1.7852c-1.4375-1.7266-0.98828-4.4727-0.98828-4.4727zm-38.102 3.3594s0.44922 2.7461-0.98828 4.4766c-1.4375 1.7266-4.2227 1.7812-4.2227 1.7812s-0.44922-2.75 0.99219-4.4766c1.4375-1.7266 4.2227-1.7812 4.2227-1.7812zm52.816 0s2.7852 0.054687 4.2227 1.7812 0.98828 4.4766 0.98828 4.4766-2.7812-0.054688-4.2188-1.7812c-1.4375-1.7266-0.99219-4.4766-0.99219-4.4766zm-33.438 0.14844s1.5742 2.2969 1.0039 4.4727c-0.57031 2.1758-3.0625 3.4062-3.0625 3.4062s-1.5742-2.293-1.0039-4.4727c0.57031-2.1758 3.0625-3.4102 3.0625-3.4102zm14.062 0s2.4961 1.2344 3.0625 3.4102c0.57031 2.1758-1.0039 4.4727-1.0039 4.4727s-2.4961-1.2305-3.0664-3.4062c-0.57031-2.1758 1.0039-4.4727 1.0039-4.4727zm-46.215 2.5117s2.6445 0.87109 3.5117 2.9414c0.87109 2.0742-0.36328 4.5664-0.36328 4.5664s-2.6445-0.86719-3.5117-2.9414c-0.87109-2.0742 0.36328-4.5703 0.36328-4.5703zm78.371 0s1.2344 2.4961 0.36328 4.5703c-0.87109 2.0742-3.5156 2.9414-3.5156 2.9414s-1.2344-2.4961-0.36328-4.5664c0.87109-2.0742 3.5117-2.9414 3.5117-2.9414zm-64.617 6.1836c-3.1484 0.015625-4.7617 0.99219-6.375 2.1719-2.1914 1.6016-4.5781 3.9961-9.2734 4.1602 1.3047 9.0508 5.5312 17.148 11.699 23.32 3.75 3.75 8.207 6.7852 13.164 8.8789 2.0859 0.88281 4.2617 1.5859 6.5078 2.1172 3.418-4.418 6.0508-8.6328 8.0312-12.672-2.8359-6.1992-4.2734-12.059-4.7539-17.613-6.0039-2.4766-10.336-5.9844-13.594-9.7852l-0.015626 0.070312c-2.2109-0.46484-3.9609-0.66016-5.3906-0.65234zm50.871 0c-1.4297-0.007813-3.1797 0.1875-5.3906 0.65234l-0.015625-0.074219c-3.2578 3.8047-7.5898 7.3125-13.594 9.793-0.48047 5.5547-1.918 11.414-4.7539 17.609 1.9766 4.0234 4.6016 8.2266 8 12.633 2.1875-0.52734 4.3086-1.2188 6.3438-2.0781 4.9531-2.0938 9.418-5.1289 13.168-8.8789 6.1719-6.1719 10.398-14.273 11.703-23.328-4.5664-0.21875-6.9258-2.5664-9.0859-4.1484-1.6133-1.1797-3.2266-2.1602-6.375-2.1719zm-45.766 1.3906s0.44922 2.75-0.98828 4.4766c-1.4375 1.7266-4.2227 1.7852-4.2227 1.7852s-0.44922-2.75 0.98828-4.4766c1.4375-1.7266 4.2227-1.7852 4.2227-1.7852zm40.66 0s2.7852 0.054688 4.2227 1.7852c1.4375 1.7266 0.98828 4.4766 0.98828 4.4766s-2.7852-0.054688-4.2227-1.7852c-1.4375-1.7266-0.98828-4.4766-0.98828-4.4766zm-51.938 2.4375s2.6445 0.86719 3.5117 2.9414c0.87109 2.0742-0.36328 4.5664-0.36328 4.5664s-2.6445-0.86719-3.5117-2.9414c-0.87109-2.0742 0.36328-4.5703 0.36328-4.5703zm63.215 0s1.2344 2.4961 0.36328 4.5703c-0.87109 2.0742-3.5156 2.9414-3.5156 2.9414s-1.2344-2.4961-0.36328-4.5664c0.87109-2.0742 3.5156-2.9414 3.5156-2.9414zm-47.938 1.5625s0.44922 2.75-0.98828 4.4766c-1.4375 1.7266-4.2227 1.7852-4.2227 1.7852s-0.44922-2.7461 0.99219-4.4727c1.4375-1.7266 4.2227-1.7852 4.2227-1.7852zm32.664 0s2.7852 0.058594 4.2227 1.7852c1.4375 1.7266 0.98828 4.4727 0.98828 4.4727s-2.7852-0.054687-4.2227-1.7852c-1.4375-1.7266-0.98828-4.4766-0.98828-4.4766zm-53.594 1.3789s2.6445 0.86719 3.5117 2.9414c0.87109 2.0742-0.36719 4.5703-0.36719 4.5703s-2.6445-0.86719-3.5156-2.9414 0.36719-4.5664 0.36719-4.5664zm74.523 0s1.2344 2.4961 0.36328 4.5664c-0.87109 2.0742-3.5117 2.9414-3.5117 2.9414s-1.2344-2.4961-0.36328-4.5703c0.87109-2.0742 3.5117-2.9414 3.5117-2.9414zm-50.141 1.6133s1.3359 2.4414 0.55078 4.5469c-0.78516 2.1094-3.3906 3.0859-3.3906 3.0859s-1.3359-2.4414-0.55078-4.5508 3.3906-3.082 3.3906-3.082zm25.762 0s2.6055 0.97656 3.3906 3.082c0.78516 2.1094-0.55078 4.5508-0.55078 4.5508s-2.6055-0.97656-3.3906-3.0859c-0.78516-2.1094 0.55078-4.5469 0.55078-4.5469zm-20.027 3.207s1.6406 2.2461 1.1328 4.4414c-0.50391 2.1914-2.9609 3.4961-2.9609 3.4961s-1.6406-2.2461-1.1328-4.4414c0.50391-2.1914 2.9609-3.4961 2.9609-3.4961zm14.297 0s2.4609 1.3047 2.9648 3.4961c0.50391 2.1914-1.1367 4.4414-1.1367 4.4414s-2.457-1.3047-2.9648-3.4961c-0.50391-2.1914 1.1367-4.4414 1.1367-4.4414zm-7.1484 19.785c-1.7109 3.2227-3.8086 6.5352-6.3477 9.9375 2.0391 0.30859 4.125 0.46875 6.25 0.46875 2.1875 0 4.332-0.17188 6.4219-0.49609-2.5312-3.3945-4.6172-6.6953-6.3242-9.9102z"/>
</svg>
